<svg width="170" height="168" viewBox="0 0 170 168" fill="none" xmlns="http://www.w3.org/2000/svg">
  <path d="M23.5957 83.8235L23.5957 82.8235L22.5957 82.8235L22.5957 83.8235L23.5957 83.8235ZM23.5957 83.8235H24.5957V82.8235L23.5957 82.8235L23.5957 83.8235ZM23.5957 140H22.5957H23.5957ZM28.5957 145V146V145ZM85.1694 145V146H86.1694L86.1694 145H85.1694ZM85.1694 124.047L85.3849 123.071L84.1694 122.802L84.1694 124.047H85.1694ZM87.4446 103.538L87.4446 104.538L87.4446 103.538ZM85.1694 103.785H84.1694L84.1694 105.029L85.3849 104.761L85.1694 103.785ZM85.1694 84.1764L86.1694 84.1764L86.1694 83.1764H85.1694V84.1764ZM65.0786 84.1764V83.1764H63.8304L64.1027 84.3946L65.0786 84.1764ZM44.6845 84.1764L45.6604 84.3946L45.9328 83.1764H44.6845V84.1764ZM23.5957 84.8235H23.5957L23.5957 82.8235H23.5957L23.5957 84.8235ZM24.5957 84.1764L24.5957 83.8235L22.5957 83.8235L22.5957 84.1764L24.5957 84.1764ZM24.5957 140L24.5957 84.1764L22.5957 84.1764L22.5957 140H24.5957ZM28.5957 144C26.3866 144 24.5957 142.209 24.5957 140H22.5957C22.5957 143.314 25.282 146 28.5957 146V144ZM85.1694 144L28.5957 144V146L85.1694 146L85.1694 144ZM84.1694 124.047L84.1694 145H86.1694L86.1694 124.047H84.1694ZM87.4446 123.294C86.7361 123.294 86.047 123.217 85.3849 123.071L84.9539 125.024C85.7566 125.201 86.5903 125.294 87.4446 125.294V123.294ZM96.8901 113.916C96.8901 119.089 92.6673 123.294 87.4446 123.294V125.294C93.7597 125.294 98.8901 120.206 98.8901 113.916H96.8901ZM87.4446 104.538C92.6673 104.538 96.8901 108.743 96.8901 113.916H98.8901C98.8901 107.626 93.7597 102.538 87.4446 102.538L87.4446 104.538ZM85.3849 104.761C86.047 104.615 86.7361 104.538 87.4446 104.538V102.538C86.5903 102.538 85.7566 102.631 84.9539 102.808L85.3849 104.761ZM84.1694 84.1764L84.1694 103.785H86.1694L86.1694 84.1764L84.1694 84.1764ZM85.1694 83.1764H65.0786V85.1764H85.1694V83.1764ZM64.1027 84.3946C64.2495 85.0512 64.3271 85.7345 64.3271 86.4369H66.3271C66.3271 85.5867 66.2331 84.757 66.0545 83.9582L64.1027 84.3946ZM64.3271 86.4369C64.3271 91.6102 60.1043 95.8151 54.8816 95.8151V97.8151C61.1967 97.8151 66.3271 92.727 66.3271 86.4369H64.3271ZM54.8816 95.8151C49.6588 95.8151 45.436 91.6102 45.436 86.4369H43.436C43.436 92.727 48.5665 97.8151 54.8816 97.8151V95.8151ZM45.436 86.4369C45.436 85.7345 45.5137 85.0512 45.6604 84.3946L43.7086 83.9582C43.53 84.757 43.436 85.5867 43.436 86.4369H45.436ZM44.6845 83.1764H23.5957V85.1764H44.6845V83.1764ZM24.5957 84.1764V83.8235H22.5957V84.1764H24.5957Z" fill="#76A9E3"/>
  <path d="M147.09 28L146.09 28L146.09 28L147.09 28ZM147.09 83.521L147.09 84.521L148.09 84.521L148.09 83.521L147.09 83.521ZM142.09 23L142.09 22L142.09 23ZM85.5161 23L85.5161 22L84.5161 22L84.5161 23L85.5161 23ZM85.5161 43.9528L85.3006 44.9293L86.5161 45.1975L86.5161 43.9528L85.5161 43.9528ZM85.5161 64.2153L86.5161 64.2153L86.5161 62.9705L85.3006 63.2388L85.5161 64.2153ZM85.5161 83.521L84.5161 83.521L84.5161 84.521L85.5161 84.521L85.5161 83.521ZM105.607 83.521L105.607 84.521L106.855 84.521L106.583 83.3028L105.607 83.521ZM126.001 83.521L125.025 83.3028L124.753 84.521L126.001 84.521L126.001 83.521ZM146.09 28L146.09 83.521L148.09 83.521L148.09 28L146.09 28ZM142.09 24C144.299 24 146.09 25.7909 146.09 28L148.09 28C148.09 24.6863 145.404 22 142.09 22L142.09 24ZM85.5161 24L142.09 24L142.09 22L85.5161 22L85.5161 24ZM86.5161 43.9528L86.5161 23L84.5161 23L84.5161 43.9528L86.5161 43.9528ZM83.2409 44.7059C83.9494 44.7059 84.6385 44.7832 85.3006 44.9293L85.7317 42.9763C84.9289 42.7991 84.0953 42.7059 83.2409 42.7059L83.2409 44.7059ZM73.7954 54.084C73.7954 48.9107 78.0182 44.7059 83.2409 44.7059L83.2409 42.7059C76.9258 42.7059 71.7954 47.794 71.7954 54.084L73.7954 54.084ZM83.2409 63.4622C78.0182 63.4622 73.7954 59.2574 73.7954 54.084L71.7954 54.084C71.7954 60.3741 76.9258 65.4622 83.2409 65.4622L83.2409 63.4622ZM85.3006 63.2388C84.6385 63.3849 83.9494 63.4622 83.2409 63.4622L83.2409 65.4622C84.0953 65.4622 84.9289 65.369 85.7316 65.1918L85.3006 63.2388ZM86.5161 83.521L86.5161 64.2153L84.5161 64.2153L84.5161 83.521L86.5161 83.521ZM85.5161 84.521L105.607 84.521L105.607 82.521L85.5161 82.521L85.5161 84.521ZM106.583 83.3028C106.436 82.6462 106.358 81.9629 106.358 81.2605L104.358 81.2605C104.358 82.1107 104.452 82.9403 104.631 83.7392L106.583 83.3028ZM106.358 81.2605C106.358 76.0872 110.581 71.8823 115.804 71.8823L115.804 69.8823C109.489 69.8823 104.358 74.9704 104.358 81.2605L106.358 81.2605ZM115.804 71.8823C121.027 71.8823 125.25 76.0872 125.25 81.2605L127.25 81.2605C127.25 74.9704 122.119 69.8823 115.804 69.8823L115.804 71.8823ZM125.25 81.2605C125.25 81.9629 125.172 82.6462 125.025 83.3028L126.977 83.7392C127.156 82.9403 127.25 82.1107 127.25 81.2605L125.25 81.2605ZM126.001 84.521L147.09 84.521L147.09 82.521L126.001 82.521L126.001 84.521Z" fill="#76A9E3"/>
  <path d="M84.9917 145L83.9917 144.992L83.9835 146L84.9917 146L84.9917 145ZM85.1654 123.821L85.3983 122.848L84.1757 122.555L84.1654 123.812L85.1654 123.821ZM142.073 145L142.073 146L142.073 145ZM147.073 83.6387L148.073 83.6387L148.073 82.6387L147.073 82.6387L147.073 83.6387ZM125.477 83.6387L124.501 83.4205L124.228 84.6387L125.477 84.6387L125.477 83.6387ZM104.834 81.3781L105.834 81.3781L104.834 81.3781ZM105.083 83.6387L105.083 84.6387L106.331 84.6387L106.058 83.4205L105.083 83.6387ZM85.4949 83.6387L85.4949 82.6387L84.5031 82.6387L84.495 83.6305L85.4949 83.6387ZM85.3312 103.603L84.3312 103.595L84.3209 104.852L85.5482 104.579L85.3312 103.603ZM85.9917 145.008L86.1654 123.829L84.1654 123.812L83.9917 144.992L85.9917 145.008ZM142.073 144L84.9917 144L84.9917 146L142.073 146L142.073 144ZM146.073 140C146.073 142.209 144.282 144 142.073 144L142.073 146C145.387 146 148.073 143.314 148.073 140L146.073 140ZM146.073 83.6387L146.073 140L148.073 140L148.073 83.6387L146.073 83.6387ZM125.477 84.6387L147.073 84.6387L147.073 82.6387L125.477 82.6387L125.477 84.6387ZM124.725 81.3781C124.725 82.0806 124.647 82.7639 124.501 83.4205L126.452 83.8568C126.631 83.058 126.725 82.2284 126.725 81.3781L124.725 81.3781ZM115.28 72C120.502 72 124.725 76.2048 124.725 81.3781L126.725 81.3781C126.725 75.0881 121.595 70 115.28 70L115.28 72ZM105.834 81.3781C105.834 76.2048 110.057 72 115.28 72L115.28 70C108.964 70 103.834 75.0881 103.834 81.3781L105.834 81.3781ZM106.058 83.4205C105.912 82.7639 105.834 82.0806 105.834 81.3781L103.834 81.3781C103.834 82.2284 103.928 83.058 104.107 83.8568L106.058 83.4205ZM85.4949 84.6387L105.083 84.6387L105.083 82.6387L85.4949 82.6387L85.4949 84.6387ZM86.3312 103.612L86.4949 83.6469L84.495 83.6305L84.3312 103.595L86.3312 103.612ZM85.5482 104.579C86.2147 104.431 86.9086 104.353 87.6221 104.353L87.6221 102.353C86.7617 102.353 85.9222 102.448 85.1142 102.627L85.5482 104.579ZM87.6221 104.353C92.8449 104.353 97.0677 108.558 97.0677 113.731L99.0677 113.731C99.0677 107.441 93.9372 102.353 87.6221 102.353L87.6221 104.353ZM97.0677 113.731C97.0677 118.904 92.8449 123.109 87.6221 123.109L87.6221 125.109C93.9372 125.109 99.0677 120.021 99.0677 113.731L97.0677 113.731ZM87.6221 123.109C86.8549 123.109 86.1104 123.019 85.3983 122.848L84.9325 124.793C85.7961 125 86.6969 125.109 87.6221 125.109L87.6221 123.109Z" fill="#6BBAB7"/>
  <path d="M28.5957 23V24V23ZM85.4951 23H86.4951V22H85.4951V23ZM23.5957 84.1765H22.5957V85.1765H23.5957V84.1765ZM44.5125 84.1765L45.4832 84.4168L45.7903 83.1765H44.5125V84.1765ZM65.1165 84.1765V83.1765H63.875L64.1394 84.3895L65.1165 84.1765ZM85.4951 84.1765V85.1765H86.4787L86.4949 84.1929L85.4951 84.1765ZM85.5062 83.5001L86.506 83.5166L86.5226 82.5112L85.5172 82.5002L85.5062 83.5001ZM85.4951 83.5H84.4951L84.4951 84.4891L85.4841 84.4999L85.4951 83.5ZM85.4951 64.2444H86.4951L86.4951 63.0355L85.3076 63.2621L85.4951 64.2444ZM85.4951 43.8671L85.3076 44.8493L86.4951 45.076V43.8671H85.4951ZM28.5957 24L85.4951 24L85.4951 22L28.5957 22V24ZM24.5957 28C24.5957 25.7909 26.3866 24 28.5957 24V22C25.282 22 22.5957 24.6863 22.5957 28H24.5957ZM24.5957 84.1765V28H22.5957V84.1765H24.5957ZM44.5125 83.1765H23.5957V85.1765H44.5125V83.1765ZM45.2288 86.5C45.2288 85.7851 45.317 85.0879 45.4832 84.4168L43.5418 83.9361C43.3375 84.7612 43.2288 85.6197 43.2288 86.5H45.2288ZM55.1292 95.8151C49.7994 95.8151 45.2288 91.6142 45.2288 86.5H43.2288C43.2288 92.8492 48.8298 97.8151 55.1292 97.8151V95.8151ZM64.3652 86.5C64.3652 91.6948 60.3761 95.8151 55.1292 95.8151V97.8151C61.5113 97.8151 66.3652 92.7685 66.3652 86.5H64.3652ZM64.1394 84.3895C64.2873 85.0677 64.3652 85.7741 64.3652 86.5H66.3652C66.3652 85.6307 66.2718 84.7814 66.0935 83.9635L64.1394 84.3895ZM85.4951 83.1765H65.1165V85.1765H85.4951V83.1765ZM84.5063 83.4837L84.4952 84.16L86.4949 84.1929L86.506 83.5166L84.5063 83.4837ZM85.5172 82.5002L85.5061 82.5001L85.4841 84.4999L85.4952 84.5001L85.5172 82.5002ZM86.4951 83.5L86.4951 64.2444H84.4951L84.4951 83.5H86.4951ZM85.3076 63.2621C84.7175 63.3747 84.1073 63.4339 83.4821 63.4339V65.4339C84.2337 65.4339 84.9695 65.3628 85.6826 65.2267L85.3076 63.2621ZM83.4821 63.4339C78.2062 63.4339 73.9539 59.2216 73.9539 54.0557H71.9539C71.9539 60.3532 77.1288 65.4339 83.4821 65.4339V63.4339ZM73.9539 54.0557C73.9539 48.8898 78.2062 44.6776 83.4821 44.6776V42.6776C77.1288 42.6776 71.9539 47.7583 71.9539 54.0557H73.9539ZM83.4821 44.6776C84.1073 44.6776 84.7175 44.7367 85.3076 44.8493L85.6826 42.8848C84.9695 42.7487 84.2337 42.6776 83.4821 42.6776V44.6776ZM86.4951 43.8671V23H84.4951V43.8671H86.4951Z" fill="#F5BA5B"/>
</svg>
