<svg width="168" height="168" viewBox="0 0 168 168" fill="none" xmlns="http://www.w3.org/2000/svg">
<path d="M82.4398 13.5502C83.3102 13.2346 84.2631 13.2307 85.136 13.5392L145.901 35.0121C147.663 35.6347 148.759 37.3943 148.541 39.2502L138.874 121.539C138.726 122.8 137.988 123.916 136.886 124.546L85.8099 153.721C84.5849 154.421 83.0819 154.423 81.8544 153.728L31.1254 124.992C30.0162 124.364 29.2729 123.244 29.1242 121.978L19.4553 39.6672C19.2387 37.8233 20.3192 36.0728 22.0646 35.44L82.4398 13.5502Z" stroke="#76A9E3" stroke-width="2"/>
<path d="M31.7032 40.6534L81.314 22.6131C82.404 22.2167 83.5979 22.2116 84.6912 22.5986L135.727 40.6645C137.933 41.4452 139.302 43.6508 139.023 45.9736L130.801 114.495C130.612 116.071 129.686 117.463 128.307 118.247L85.4973 142.58C83.951 143.459 82.054 143.451 80.5158 142.558L38.6744 118.263C37.3064 117.468 36.395 116.073 36.2169 114.502L28.4437 45.9154C28.1835 43.6189 29.5311 41.4432 31.7032 40.6534Z" stroke="#F5BA5B" stroke-width="2" stroke-linecap="round"/>
<path d="M84.7757 60.8882L83.8524 61.2722L84.7757 60.8882C84.3999 59.9845 83.1197 59.9847 82.7442 60.8885L72.5115 85.5196C72.1832 86.3099 72.7639 87.18 73.6197 87.18H93.9102C94.7661 87.18 95.3469 86.3096 95.0182 85.5192L84.7757 60.8882ZM74.3584 86.2869L74.101 86.18H74.1011L74.3584 86.2869L74.3588 86.286C74.3587 86.2863 74.3586 86.2866 74.3584 86.2869ZM93.1716 86.2872C93.1714 86.2868 93.1712 86.2864 93.1711 86.2861L93.1716 86.2872ZM84.5912 61.6558C84.591 61.6563 84.5908 61.6568 84.5906 61.6573L84.5912 61.6558L83.891 61.3649L84.5912 61.6558ZM49.5409 114.18L83.7583 37.4588L117.851 114.18H106.737L100.05 97.496C99.7458 96.7373 99.0108 96.24 98.1935 96.24H69.1965C68.3792 96.24 67.6441 96.7373 67.3401 97.496L60.6535 114.18H49.5409Z" stroke="#6BBAB7" stroke-width="2"/>
</svg>
