<svg width="168" height="168" viewBox="0 0 168 168" fill="none" xmlns="http://www.w3.org/2000/svg">
<path d="M108 84C108 102.693 105.268 119.573 100.883 131.744C98.6892 137.834 96.1001 142.692 93.2753 146.008C90.447 149.328 87.4779 151 84.5 151C81.5221 151 78.553 149.328 75.7247 146.008C72.8999 142.692 70.3108 137.834 68.1167 131.744C63.7316 119.573 61 102.693 61 84C61 65.3067 63.7316 48.4267 68.1167 36.2557C70.3108 30.166 72.8999 25.3084 75.7247 21.9922C78.553 18.6721 81.5221 17 84.5 17C87.4779 17 90.447 18.6721 93.2753 21.9922C96.1001 25.3084 98.6892 30.166 100.883 36.2557C105.268 48.4267 108 65.3067 108 84Z" stroke="#76A9E3" stroke-width="2"/>
<path d="M95.9398 103.807C79.8156 113.265 63.8734 119.449 51.1565 121.824C44.7936 123.013 39.2937 123.237 35.004 122.478C30.7093 121.719 27.7648 120.004 26.2581 117.435C24.7515 114.866 24.6916 111.459 26.1245 107.34C27.5558 103.225 30.4358 98.5345 34.5785 93.5609C42.8582 83.6207 56.0364 72.7242 72.1606 63.2665C88.2849 53.8088 104.227 47.6247 116.944 45.2494C123.307 44.0609 128.807 43.8366 133.096 44.5954C137.391 45.3551 140.336 47.0703 141.842 49.6389C143.349 52.2075 143.409 55.6146 141.976 59.7339C140.545 63.8483 137.665 68.5392 133.522 73.5128C125.242 83.4531 112.064 94.3495 95.9398 103.807Z" stroke="#F5BA5B" stroke-width="2"/>
<path d="M72.1608 103.807C88.285 113.265 104.227 119.449 116.944 121.824C123.307 123.013 128.807 123.237 133.097 122.478C137.391 121.719 140.336 120.004 141.842 117.435C143.349 114.866 143.409 111.459 141.976 107.34C140.545 103.225 137.665 98.5345 133.522 93.5609C125.242 83.6207 112.064 72.7242 95.94 63.2665C79.8157 53.8088 63.8735 47.6247 51.1566 45.2494C44.7937 44.0609 39.2938 43.8366 35.0042 44.5954C30.7094 45.3551 27.7649 47.0703 26.2583 49.6389C24.7517 52.2075 24.6917 55.6146 26.1247 59.7339C27.5559 63.8483 30.4359 68.5392 34.5787 73.5128C42.8583 83.4531 56.0365 94.3495 72.1608 103.807Z" stroke="#F5BA5B" stroke-width="2"/>
<circle cx="84.5" cy="83.5" r="10.5" stroke="#6BBAB7" stroke-width="2"/>
</svg>
